<?xml version="1.0" encoding="utf-8"?>
<!-- Generator: Adobe Illustrator 16.0.0, SVG Export Plug-In . SVG Version: 6.00 Build 0)  -->
<!DOCTYPE svg PUBLIC "-//W3C//DTD SVG 1.1//EN" "http://www.w3.org/Graphics/SVG/1.1/DTD/svg11.dtd">
<svg version="1.1" id="Layer_1" xmlns="http://www.w3.org/2000/svg" xmlns:xlink="http://www.w3.org/1999/xlink" x="0px" y="0px"
	 width="130px" height="130px" viewBox="0 0 130 130" enable-background="new 0 0 130 130" xml:space="preserve">
<g>
	<g id="Shape_1_copy_3_8_">
		<ellipse fill="#25A774" cx="65" cy="65" rx="64" ry="64.017"/>
	</g>
	<g id="ShareThis_icon">
		<path fill="#FFFFFF" d="M80.805,73.52c-2.663,0-5.068,1.018-6.927,2.645L53.256,65.938c0.07-0.49,0.148-0.977,0.15-1.485
			l20.56-10.344c1.847,1.578,4.216,2.565,6.839,2.565c5.835,0,10.564-4.713,10.564-10.528c0-5.814-4.729-10.529-10.564-10.529
			c-5.834,0-10.564,4.715-10.564,10.529c0,0.213,0.051,0.413,0.063,0.625L50.155,56.855c-1.89-1.814-4.442-2.944-7.27-2.944
			c-5.811,0-10.521,4.713-10.521,10.529c0,5.814,4.711,10.527,10.521,10.527c2.332,0,4.468-0.785,6.212-2.07l21.196,10.647
			c-0.009,0.178-0.054,0.346-0.054,0.525c0,5.827,4.73,10.55,10.564,10.55c5.835,0,10.564-4.723,10.564-10.55
			C91.369,78.244,86.64,73.52,80.805,73.52z"/>
	</g>
</g>
</svg>
